<svg xmlns="http://www.w3.org/2000/svg" viewBox="0 0 240 280" fill="#070b10"><title>XEVEN spider emblem</title><desc>Eight angular tapered legs and a transparent X cut into the body. Flat original vector silhouette.</desc><path d="M111 109 79 75 75 26 57 10 61 81 99 128Z"/><path d="M105 126 65 104 37 67 15 54 42 116 99 145Z"/><path d="M101 145 53 160 23 218 20 249 67 181 109 164Z"/><path d="M109 163 88 196 84 249 101 272 106 211 120 181Z"/><g transform="translate(240 0) scale(-1 1)"><path d="M111 109 79 75 75 26 57 10 61 81 99 128Z"/><path d="M105 126 65 104 37 67 15 54 42 116 99 145Z"/><path d="M101 145 53 160 23 218 20 249 67 181 109 164Z"/><path d="M109 163 88 196 84 249 101 272 106 211 120 181Z"/></g><path d="M120 73 134 86 132 109 140 128 137 157 129 186 120 208 111 186 103 157 100 128 108 109 106 86Z M109 127 120 140 131 127 135 133 125 146 134 160 129 166 120 152 111 166 106 160 115 146 105 133Z" fill-rule="evenodd"/></svg>